<svg width="128" height="128" viewBox="0 0 128 128" xmlns="http://www.w3.org/2000/svg">
  <defs>
    <linearGradient id="shieldGradient" x1="0%" y1="0%" x2="100%" y2="100%">
      <stop offset="0%" style="stop-color:#667eea;stop-opacity:1" />
      <stop offset="100%" style="stop-color:#764ba2;stop-opacity:1" />
    </linearGradient>
    <linearGradient id="lockGradient" x1="0%" y1="0%" x2="100%" y2="100%">
      <stop offset="0%" style="stop-color:#ffffff;stop-opacity:1" />
      <stop offset="100%" style="stop-color:#f8fafc;stop-opacity:1" />
    </linearGradient>
  </defs>
  
  <!-- Background circle -->
  <circle cx="64" cy="64" r="60" fill="url(#shieldGradient)" stroke="#ffffff" stroke-width="4"/>
  
  <!-- Shield shape -->
  <path d="M64 20 L44 30 L44 60 C44 80 64 100 64 100 C64 100 84 80 84 60 L84 30 Z" 
        fill="url(#lockGradient)" 
        stroke="#667eea" 
        stroke-width="2"/>
  
  <!-- Lock icon -->
  <rect x="56" y="50" width="16" height="12" rx="2" fill="#667eea"/>
  <path d="M60 50 L60 45 C60 42 62 40 64 40 C66 40 68 42 68 45 L68 50" 
        fill="none" 
        stroke="#667eea" 
        stroke-width="2" 
        stroke-linecap="round"/>
  
  <!-- Checkmark -->
  <path d="M58 56 L62 60 L70 52" 
        fill="none" 
        stroke="#ffffff" 
        stroke-width="2" 
        stroke-linecap="round" 
        stroke-linejoin="round"/>
</svg>
